<svg width="18" height="15" viewBox="0 0 18 15" fill="none" xmlns="http://www.w3.org/2000/svg">
<path d="M3.05 12.9474C3.32848 12.9474 3.59555 13.0555 3.79246 13.248C3.98938 13.4404 4.1 13.7015 4.1 13.9737C4.1 14.2459 3.98938 14.5069 3.79246 14.6994C3.59555 14.8919 3.32848 15 3.05 15C2.77152 15 2.50445 14.8919 2.30754 14.6994C2.11062 14.5069 2 14.2459 2 13.9737C2 13.7015 2.11062 13.4404 2.30754 13.248C2.50445 13.0555 2.77152 12.9474 3.05 12.9474ZM6.55 10.8947C7.01413 10.8947 7.45925 11.075 7.78744 11.3957C8.11563 11.7165 8.3 12.1516 8.3 12.6053C8.3 13.0589 8.11563 13.494 7.78744 13.8148C7.45925 14.1356 7.01413 14.3158 6.55 14.3158C6.08587 14.3158 5.64075 14.1356 5.31256 13.8148C4.98437 13.494 4.8 13.0589 4.8 12.6053C4.8 12.1516 4.98437 11.7165 5.31256 11.3957C5.64075 11.075 6.08587 10.8947 6.55 10.8947ZM10.75 10.2105C9.917 10.2105 9.161 9.86842 8.65 9.28684C8.139 9.86842 7.383 10.2105 6.55 10.2105C5.178 10.2105 4.037 9.24579 3.799 7.98C3.27036 7.78017 2.81578 7.42896 2.49478 6.97237C2.17378 6.51577 2.00132 5.97506 2 5.42105C2 4.6952 2.295 3.99907 2.8201 3.48581C3.3452 2.97256 4.05739 2.68421 4.8 2.68421C4.982 2.68421 5.15 2.70474 5.339 2.73211C5.85 2.28053 6.515 2 7.25 2C8.083 2 8.839 2.34211 9.35 2.92368C9.861 2.34211 10.617 2 11.45 2C12.822 2 13.963 2.96474 14.201 4.23053C14.7296 4.43035 15.1842 4.78156 15.5052 5.23816C15.8262 5.69476 15.9987 6.23547 16 6.78947C16 7.51533 15.705 8.21146 15.1799 8.72471C14.6548 9.23797 13.9426 9.52632 13.2 9.52632L12.661 9.47842C12.15 9.93 11.485 10.2105 10.75 10.2105Z" fill="#FBCE18"/>
</svg>
