<svg width="43" height="43" viewBox="0 0 43 43" fill="none" xmlns="http://www.w3.org/2000/svg">
<path d="M42.5679 11.1047L37.4616 7.17024C37.1146 6.94757 36.7373 6.77596 36.3414 6.66069C35.9474 6.53207 35.5368 6.4611 35.1224 6.44999H20.425L22.1472 17.2H35.1224C35.475 17.2 35.9158 17.1204 36.3393 16.9893C36.7629 16.8581 37.1714 16.6775 37.4595 16.4819L42.5657 12.5431C42.856 12.3474 43 12.0873 43 11.825C43 11.5627 42.856 11.3025 42.5679 11.1047ZM18.275 2.14999H16.125C15.8399 2.14999 15.5665 2.26325 15.3649 2.46485C15.1633 2.66646 15.05 2.93989 15.05 3.22499V10.75H7.8776C7.5207 10.75 7.0821 10.8295 6.65855 10.9628C6.23285 11.0918 5.8265 11.2703 5.5384 11.4702L0.43215 15.4047C0.1419 15.6004 0 15.8627 0 16.125C0 16.3851 0.1419 16.6453 0.43215 16.8452L5.5384 20.784C5.8265 20.9797 6.23285 21.1603 6.65855 21.2893C7.0821 21.4204 7.5207 21.5 7.8776 21.5H15.05V39.775C15.05 40.0601 15.1633 40.3335 15.3649 40.5351C15.5665 40.7367 15.8399 40.85 16.125 40.85H18.275C18.5601 40.85 18.8335 40.7367 19.0351 40.5351C19.2367 40.3335 19.35 40.0601 19.35 39.775V3.22499C19.35 2.93989 19.2367 2.66646 19.0351 2.46485C18.8335 2.26325 18.5601 2.14999 18.275 2.14999Z" fill="#18E395"/>
</svg>
