<svg width="38" height="39" viewBox="0 0 38 39" fill="none" xmlns="http://www.w3.org/2000/svg">
<path d="M32.3135 2.75812L35.4639 5.96613L36.1514 6.66632L35.4639 7.36749L23.5508 19.4993L35.4639 31.6331L36.1514 32.3333L35.4639 33.0335L32.3135 36.2425L31.5996 36.9691L30.8867 36.2425L19 24.1351L7.11328 36.2425L6.40039 36.9691L5.68652 36.2425L2.53613 33.0335L1.84863 32.3333L2.53613 31.6331L14.4482 19.4993L2.53613 7.36749L1.84863 6.66632L2.53613 5.96613L5.68652 2.75812L6.40039 2.03058L7.11328 2.75812L19 14.8636L30.8867 2.75812L31.5996 2.03058L32.3135 2.75812Z" fill="black" stroke="black" stroke-width="2"/>
</svg>
