<svg width="20" height="20" viewBox="0 0 20 20" fill="none" xmlns="http://www.w3.org/2000/svg">
<path d="M16.6667 15V8.33333C16.6667 6.76167 16.6667 5.97583 16.1783 5.48833C15.69 5 14.905 5 13.3333 5H3.33333V15C3.33333 16.5708 3.33333 17.3567 3.82166 17.845C4.30999 18.3333 5.09499 18.3333 6.66666 18.3333H13.3333C14.905 18.3333 15.69 18.3333 16.1783 17.845C16.6667 17.3567 16.6667 16.5708 16.6667 15Z" stroke="#222222" stroke-width="1.5" stroke-linecap="round" stroke-linejoin="round"/>
<path d="M9.99999 9.16667C10.663 9.16667 11.2989 9.43006 11.7678 9.8989C12.2366 10.3677 12.5 11.0036 12.5 11.6667M9.99999 9.16667C9.33695 9.16667 8.70107 9.43006 8.23223 9.8989C7.76339 10.3677 7.49999 11.0036 7.49999 11.6667M9.99999 9.16667V8.33333M12.5 11.6667H7.49999M12.5 11.6667H13.3333M7.49999 11.6667H6.66666M6.66666 15H13.3333M3.33333 5L9.48749 2.42167C10.8617 1.84583 11.5483 1.5575 12.0958 1.705C12.4508 1.80039 12.7643 2.01046 12.9875 2.3025C13.3333 2.75417 13.3333 3.5025 13.3333 5" stroke="#222222" stroke-width="1.5" stroke-linecap="round" stroke-linejoin="round"/>
</svg>
