<svg width="20" height="20" viewBox="0 0 20 20" fill="none" xmlns="http://www.w3.org/2000/svg">
<path d="M18.69 12.344L16.963 10.806C16.463 10.361 16.463 9.632 16.963 9.187L18.69 7.648C19.19 7.203 19.057 6.789 18.394 6.724L16.104 6.507C15.442 6.445 15.084 5.874 15.313 5.241L16.528 1.858C16.756 1.223 16.477 0.993 15.909 1.344L13.208 3.014C13.0741 3.09753 12.9246 3.15288 12.7686 3.17665C12.6126 3.20041 12.4534 3.19211 12.3008 3.15223C12.1481 3.11235 12.0052 3.04175 11.8807 2.94473C11.7563 2.84772 11.6529 2.72633 11.577 2.588L10.599 0.842C10.27 0.254 9.727 0.252 9.392 0.834L8.483 2.414C8.146 2.999 7.375 3.247 6.77 2.97L5.17 2.236C4.562 1.956 4.097 2.278 4.133 2.952L4.219 4.567C4.256 5.241 3.758 5.934 3.115 6.108L1.57 6.522C0.928003 6.696 0.810003 7.202 1.31 7.647L3.037 9.186C3.537 9.631 3.537 10.36 3.037 10.805L1.31 12.344C0.810003 12.789 0.942003 13.221 1.603 13.301L3.698 13.555C4.359 13.635 4.727 14.225 4.516 14.866L3.442 18.124C3.231 18.765 3.532 19.013 4.11 18.679L6.573 17.253C6.86029 17.0937 7.19667 17.0472 7.51641 17.1226C7.83615 17.1981 8.11626 17.39 8.302 17.661L9.324 19.2C9.696 19.759 10.255 19.729 10.564 19.132L11.463 17.399C11.6127 17.1115 11.8687 16.8938 12.1766 16.7924C12.4844 16.6909 12.8197 16.7138 13.111 16.856L14.845 17.723C15.443 18.02 15.902 17.713 15.866 17.041L15.779 15.424C15.744 14.75 16.24 14.059 16.885 13.885L18.428 13.469C19.072 13.295 19.19 12.789 18.69 12.344ZM11 14H9V12H11V14ZM11 11H9V6H11V11Z" fill="#222222"/>
</svg>
